<svg width="342" height="76" viewBox="0 0 342 76" fill="none" xmlns="http://www.w3.org/2000/svg">
<path d="M2.88 1.00801H7.728V13.296L21.984 1.056H28.032L13.392 14.016L28.992 27.696H23.04L8.592 15.792L7.728 15.696V27.696H2.88V1.00801ZM33.3244 0.960006H38.1244V27.696H33.3244V0.960006ZM49.9691 0.960006L60.3851 17.184H60.8651L71.2811 0.960006H76.4171L76.3691 1.056V27.696H71.5691V8.54401L63.2171 21.552H58.0331L49.7291 8.592V27.696H44.9291V0.960006H49.9691ZM170.945 19.488C172.913 21.744 175.073 23.424 180.545 23.664C184.961 23.856 189.089 23.472 189.473 20.88C189.953 18 187.457 16.368 181.745 15.648C174.641 14.784 166.529 14.448 166.529 8.01601C166.529 0.144005 178.385 0.384005 182.225 0.624004C187.312 0.960006 191.873 2.97601 193.793 8.688H188.993C188.273 7.00801 186.689 5.18401 180.689 4.89601C177.521 4.75201 171.713 5.04 171.329 7.488C170.945 9.98401 174.161 10.368 179.921 11.088C186.977 11.952 194.321 13.344 194.321 20.496C194.321 28.704 183.137 28.176 179.297 27.936C171.137 27.408 167.777 23.28 166.193 19.488H170.945ZM199.099 0.960006H224.683V5.32801H203.899V12.48H224.203V16.848H203.899V23.328H225.643V27.696H199.099V0.960006ZM229.943 0.960006H234.743V14.112C234.743 20.112 237.191 23.856 243.863 23.856C250.487 23.856 252.887 20.112 252.887 14.112V0.960006H257.687V14.112V14.208C257.639 21.936 253.175 28.176 243.863 28.176C234.503 28.176 229.991 21.936 229.943 14.208V0.960006ZM263.458 0.960006H268.258L285.202 20.928V0.960006H290.002V27.696H285.202L268.258 7.77601V27.696H263.458V0.960006ZM309.675 13.536H323.931V17.904C322.491 25.296 316.491 28.176 309.195 28.176C299.979 28.176 294.795 21.984 294.795 14.304C294.795 6.19201 299.979 3.8147e-06 309.195 3.8147e-06C317.163 3.8147e-06 322.107 3.40801 323.259 9.696H318.459C317.595 5.66401 314.619 4.32001 309.243 4.32001C302.379 4.32001 299.595 7.92 299.595 14.304C299.595 20.256 302.379 23.856 309.243 23.856C313.995 23.856 317.979 22.896 318.987 17.904H309.675V13.536Z" fill="white"/>
<rect x="148" y="68.6" width="194" height="7" fill="#ADFF08"/>
<path d="M49.016 48.96L59.432 65.184H59.912L70.328 48.96H75.464L75.416 49.056V75.696H70.616V56.544L62.264 69.552H57.08L48.776 56.592V75.696H43.976V48.96H49.016ZM82.1994 48.96H86.9994V75.696H82.1994V48.96ZM93.7081 48.96H98.5081L115.452 68.928V48.96H120.252V75.696H115.452L98.5081 55.776V75.696H93.7081V48.96Z" fill="white"/>
</svg>
